<svg width="60" height="60" viewBox="0 0 60 60" fill="none" xmlns="http://www.w3.org/2000/svg">
<path d="M39.375 11.25C39.3749 9.47614 38.8715 7.73872 37.9233 6.23955C36.9751 4.74037 35.6211 3.54096 34.0184 2.78063C32.4158 2.02029 30.6303 1.73024 28.8694 1.94416C27.1085 2.15808 25.4444 2.86719 24.0704 3.98913C22.6965 5.11107 21.669 6.59979 21.1073 8.28238C20.5457 9.96498 20.4729 11.7724 20.8975 13.4947C21.3221 15.217 22.2266 16.7835 23.5059 18.0122C24.7853 19.241 26.387 20.0816 28.125 20.4363V53.6203C28.1252 54.1185 28.2244 54.6116 28.4168 55.0711L29.5969 57.8836C29.6364 57.956 29.6947 58.0164 29.7656 58.0584C29.8366 58.1005 29.9175 58.1227 30 58.1227C30.0825 58.1227 30.1634 58.1005 30.2344 58.0584C30.3053 58.0164 30.3636 57.956 30.4031 57.8836L31.5832 55.0711C31.7756 54.6116 31.8748 54.1185 31.875 53.6203V20.4363C33.991 20.0015 35.8924 18.8503 37.2587 17.1769C38.6249 15.5035 39.3723 13.4103 39.375 11.25ZM32.8125 11.25C32.2562 11.25 31.7125 11.085 31.25 10.776C30.7874 10.467 30.427 10.0277 30.2141 9.51379C30.0012 8.99988 29.9455 8.43438 30.054 7.8888C30.1626 7.34323 30.4304 6.84209 30.8238 6.44876C31.2171 6.05542 31.7182 5.78756 32.2638 5.67904C32.8094 5.57052 33.3749 5.62621 33.8888 5.83909C34.4027 6.05196 34.842 6.41244 35.151 6.87495C35.46 7.33747 35.625 7.88124 35.625 8.4375C35.625 9.18342 35.3287 9.89879 34.8012 10.4262C34.2738 10.9537 33.5584 11.25 32.8125 11.25Z" fill="#FF0000"/>
</svg>
